<svg width="16" height="16" viewBox="0 0 16 16" fill="none" xmlns="http://www.w3.org/2000/svg">
<path d="M1.5263 8.47297L5.5263 12.473C5.58846 12.5351 5.66225 12.5844 5.74347 12.6181C5.82468 12.6517 5.91173 12.669 5.99963 12.669C6.08754 12.669 6.17459 12.6517 6.2558 12.6181C6.33702 12.5844 6.41081 12.5351 6.47297 12.473C6.53513 12.4108 6.58443 12.337 6.61807 12.2558C6.65171 12.1746 6.66903 12.0875 6.66903 11.9996C6.66903 11.9117 6.65171 11.8247 6.61807 11.7435C6.58443 11.6623 6.53513 11.5885 6.47297 11.5263L3.6063 8.6663H13.9996C14.1764 8.6663 14.346 8.59606 14.471 8.47104C14.5961 8.34601 14.6663 8.17644 14.6663 7.99963C14.6663 7.82282 14.5961 7.65325 14.471 7.52823C14.346 7.40321 14.1764 7.33297 13.9996 7.33297H3.6063L6.47297 4.47297C6.53545 4.41099 6.58505 4.33726 6.61889 4.25602C6.65274 4.17478 6.67017 4.08764 6.67017 3.99963C6.67017 3.91163 6.65274 3.82449 6.61889 3.74325C6.58505 3.66201 6.53545 3.58828 6.47297 3.5263C6.41099 3.46381 6.33726 3.41422 6.25602 3.38037C6.17478 3.34653 6.08764 3.3291 5.99963 3.3291C5.91163 3.3291 5.82449 3.34653 5.74325 3.38037C5.66201 3.41422 5.58828 3.46381 5.5263 3.5263L1.5263 7.5263C1.46381 7.58828 1.41422 7.66201 1.38037 7.74325C1.34653 7.82449 1.3291 7.91163 1.3291 7.99963C1.3291 8.08764 1.34653 8.17478 1.38037 8.25602C1.41422 8.33726 1.46381 8.41099 1.5263 8.47297Z" fill="#000093"/>
</svg>
