<svg id="Group_115565" data-name="Group 115565" xmlns="http://www.w3.org/2000/svg" xmlns:xlink="http://www.w3.org/1999/xlink" width="60" height="60" viewBox="0 0 60 60">
  <defs>
    <clipPath id="clip-path">
      <rect id="Rectangle_17305" data-name="Rectangle 17305" width="60" height="60" fill="none"/>
    </clipPath>
  </defs>
  <g id="Group_115564" data-name="Group 115564" clip-path="url(#clip-path)">
    <path id="Path_78820" data-name="Path 78820" d="M60,30A30,30,0,1,1,30,0,30,30,0,0,1,60,30"/>
    <path id="Path_78821" data-name="Path 78821" d="M31.566,28.407V27.07H27.411v5.7h4.194V31.435H28.892v-.918h2.425V29.272H28.892v-.865Z" fill="#fff"/>
    <path id="Path_78822" data-name="Path 78822" d="M22.837,27.11l-1.6.026,2.11,5.637h1.39l2.044-5.7c-.537,0-1.061.013-1.586.013l-1.114,3.6Z" fill="#fff"/>
    <path id="Path_78823" data-name="Path 78823" d="M29.954,18.668a11.589,11.589,0,0,1,10.722,7.511h.59a12.315,12.315,0,0,0-23.319-.354l1.822-.039a10.815,10.815,0,0,1,10.185-7.118" fill="#fff"/>
    <path id="Path_78824" data-name="Path 78824" d="M37.164,29.037a1.943,1.943,0,0,0-2.2-1.966H32.55v5.7H34V31.029h.735l.917,1.743h1.678L36.1,30.78a1.791,1.791,0,0,0,1.062-1.743m-2.242.747H34v-1.39h.918c.5,0,.8.25.8.708,0,.407-.289.682-.8.682" fill="#fff"/>
    <path id="Path_78825" data-name="Path 78825" d="M19.114,32.772h1.468V27.149c-.485.013-.983.026-1.468.026Z" fill="#fff"/>
    <path id="Path_78826" data-name="Path 78826" d="M50.232,31.488V27.477l-1.442-.066v5.362h3.893V31.514Z" fill="#fff"/>
    <path id="Path_78827" data-name="Path 78827" d="M10.7,30.439c0,.747-.38,1.1-.957,1.1s-.957-.341-.957-1.1V27.516c-.485.026-.983.052-1.468.065v2.91a2.148,2.148,0,0,0,2.412,2.373,2.2,2.2,0,0,0,2.425-2.49V27.385l-1.455.052Z" fill="#fff"/>
    <path id="Path_78828" data-name="Path 78828" d="M44.582,27.24l-2.215,5.532h1.508l.38-.983h1.992l.38.983h1.547l-2.2-5.492Zm.092,3.356.59-1.547.577,1.56Z" fill="#fff"/>
    <path id="Path_78829" data-name="Path 78829" d="M40.205,29.272c-.721-.183-.905-.366-.905-.564s.171-.354.525-.354a2.49,2.49,0,0,1,1.455.565l.708-1.075a3.072,3.072,0,0,0-2.124-.786,1.791,1.791,0,0,0-2.018,1.782c0,1.01.852,1.507,1.966,1.8.695.184.865.3.865.55s-.21.381-.59.381a2.527,2.527,0,0,1-1.678-.681l-.8,1.035a3.4,3.4,0,0,0,2.425.945c1.258,0,2.1-.682,2.1-1.809,0-1.063-.734-1.482-1.927-1.784" fill="#fff"/>
    <path id="Path_78830" data-name="Path 78830" d="M18.039,27.2l-1.429.039v2.924l-2.136-2.858-1.337.039v5.427h1.415v-3l2.216,3h1.271Z" fill="#fff"/>
    <path id="Path_78831" data-name="Path 78831" d="M37.271,39a11.177,11.177,0,0,1-7.383,2.637A10.994,10.994,0,0,1,19.166,34.2H18.039a11.924,11.924,0,0,0,11.469,8.153A12.14,12.14,0,0,0,38.09,39Z" fill="#fff"/>
    <path id="Path_78832" data-name="Path 78832" d="M39.254,36.84H37.673V35.62h1.581V34.029h1.24V35.62h1.581v1.22H40.494v1.591h-1.24Z" fill="#fff"/>
  </g>
</svg>
