<svg width="48" height="48" viewBox="0 0 48 48" fill="none" xmlns="http://www.w3.org/2000/svg">
<g clip-path="url(#clip0_1378_144907)">
<rect width="48" height="48" rx="24" fill="#0F3CC9"/>
<path d="M16.9558 14.4747H16.1558C14.6376 14.4747 13.8082 15.3307 13.8082 17.0432V25.3018C13.8082 27.4281 13.09 28.1743 11.4051 28.1743C10.0798 28.1743 9.00289 27.5938 8.14644 26.5445C8.06333 26.4343 6.32422 27.2623 6.32422 29.3067C6.32422 31.5161 8.39444 32.8698 12.2353 32.8698C16.902 32.8698 19.3616 30.5218 19.3616 25.3849V17.0432C19.3589 15.3329 18.5304 14.4747 16.9558 14.4747ZM35.5558 18.5072C31.0256 18.5072 28.0153 21.3796 28.0153 25.6627C28.0153 30.0547 30.9144 32.8725 35.4722 32.8725C40.0011 32.8725 42.9833 30.0547 42.9833 25.6912C42.986 21.3796 40.03 18.5072 35.5558 18.5072ZM35.5002 28.8089C33.7318 28.8089 32.5171 27.5112 32.5171 25.6605C32.5171 23.8383 33.7616 22.5396 35.5002 22.5396C37.2389 22.5396 38.4829 23.8383 38.4829 25.6885C38.4833 27.4832 37.2131 28.8089 35.5007 28.8089H35.5002ZM24.1878 18.6449H23.6344C22.282 18.6449 21.2602 19.2796 21.2602 21.2138V30.0521C21.2602 32.0134 22.2549 32.6214 23.6904 32.6214H24.2433C25.5967 32.6214 26.5629 31.9578 26.5629 30.0521V21.2138C26.5629 19.2254 25.6247 18.6449 24.1878 18.6449ZM23.8842 12.2383C22.1713 12.2383 21.0944 13.2054 21.0944 14.7245C21.0944 16.2703 22.1998 17.2369 23.9669 17.2369C25.6793 17.2369 26.7567 16.2703 26.7567 14.7245C26.7567 13.1787 25.6518 12.2383 23.8842 12.2383Z" fill="white"/>
</g>
<defs>
<clipPath id="clip0_1378_144907">
<rect width="48" height="48" fill="white"/>
</clipPath>
</defs>
</svg>
